<?xml version="1.0" encoding="UTF-8" standalone="no"?>
<!DOCTYPE svg PUBLIC "-//W3C//DTD SVG 1.1//EN" "http://www.w3.org/Graphics/SVG/1.1/DTD/svg11.dtd">
<svg version="1.1" xmlns="http://www.w3.org/2000/svg" xmlns:xlink="http://www.w3.org/1999/xlink" preserveAspectRatio="xMidYMid meet" viewBox="-0.0007683275986156701 -0.002531590271331652 460.20515527381656 300.13745451924956" width="512" height="512"><defs><path d="M10.12 165.99C-7.61 191.31 -1.43 226.34 23.89 244.07C30.45 248.67 82.94 285.42 89.5 290.02C114.82 307.75 149.86 301.57 167.59 276.25C176.84 263.04 250.84 157.36 260.08 144.15C277.82 118.82 271.64 83.79 246.32 66.06C239.75 61.46 187.26 24.71 180.7 20.12C155.38 2.39 120.35 8.56 102.62 33.89C84.12 60.31 19.37 152.78 10.12 165.99Z" id="b2jbpQXLeZ"></path><path d="M100.12 155.99C82.39 181.31 88.57 216.34 113.89 234.07C120.45 238.67 172.94 275.42 179.5 280.02C204.82 297.75 239.86 291.57 257.59 266.25C266.84 253.04 340.84 147.36 350.08 134.15C367.82 108.82 361.64 73.79 336.32 56.06C329.75 51.46 277.26 14.71 270.7 10.12C245.38 -7.61 210.35 -1.44 192.62 23.89C174.12 50.31 109.37 142.78 100.12 155.99Z" id="e28U1iBcf9"></path><path d="M200.12 155.99C182.39 181.31 188.57 216.34 213.89 234.07C220.45 238.67 272.94 275.42 279.5 280.02C304.82 297.75 339.86 291.57 357.59 266.25C366.84 253.04 440.84 147.36 450.08 134.15C467.82 108.82 461.64 73.79 436.32 56.06C429.75 51.46 377.26 14.71 370.7 10.12C345.38 -7.61 310.35 -1.44 292.62 23.89C274.12 50.31 209.37 142.78 200.12 155.99Z" id="c1MynpZZiq"></path></defs><g><g><g><use xlink:href="#b2jbpQXLeZ" opacity="1" fill="#273141" fill-opacity="1"></use><g><use xlink:href="#b2jbpQXLeZ" opacity="1" fill-opacity="0" stroke="#000000" stroke-width="1" stroke-opacity="0"></use></g></g><g><use xlink:href="#e28U1iBcf9" opacity="1" fill="#faba6f" fill-opacity="1"></use><g><use xlink:href="#e28U1iBcf9" opacity="1" fill-opacity="0" stroke="#000000" stroke-width="1" stroke-opacity="0"></use></g></g><g><use xlink:href="#c1MynpZZiq" opacity="1" fill="#b8d078" fill-opacity="1"></use><g><use xlink:href="#c1MynpZZiq" opacity="1" fill-opacity="0" stroke="#000000" stroke-width="1" stroke-opacity="0"></use></g></g></g></g></svg>